<svg width="24" height="24" viewBox="0 0 24 24" fill="none" xmlns="http://www.w3.org/2000/svg">
<path d="M14.25 2.02563C18.759 3.06463 22 7.11803 22 11.8313C22 12.5635 21.892 13.4542 21.719 14.2198C21.572 14.867 20.863 15.1929 20.281 14.8798C19.875 14.6615 18.72 14.0748 17.062 13.2455C17.04 13.2341 13.616 11.5123 13.562 11.4855C13.221 11.316 13 10.9576 13 10.5742C13 10.5108 13.024 3.6581 13.031 2.99996C13.038 2.35812 13.628 1.88232 14.25 2.02563Z" fill="#33B588"/>
<path fill-rule="evenodd" clip-rule="evenodd" d="M9.909 2.21889C10.4874 2.09584 11 2.56218 11 3.15352V11.8819C11 12.2607 11.214 12.6069 11.5528 12.7763L19.5304 16.7651C20.0563 17.0281 20.2459 17.6893 19.8838 18.1525C18.0536 20.4944 15.2026 21.9999 12 21.9999C6.47715 21.9999 2 17.5228 2 11.9999C2 7.19423 5.38994 3.18028 9.909 2.21889Z" fill="#00A36A"/>
</svg>
