<svg width="25" height="24" viewBox="0 0 25 24" fill="none" xmlns="http://www.w3.org/2000/svg">
    <rect x="4.5" y="5" width="6" height="5" fill="white"/>
    <rect x="4.5" y="15" width="6" height="5" fill="white"/>
    <path d="M14.5 3C13.948 3 13.5 3.448 13.5 4V6C13.5 6.552 13.948 7 14.5 7H20.5C21.052 7 21.5 6.552 21.5 6V4C21.5 3.448 21.052 3 20.5 3H14.5ZM14.5 9C13.948 9 13.5 9.448 13.5 10C13.5 10.552 13.948 11 14.5 11H18.5C19.052 11 19.5 10.552 19.5 10C19.5 9.448 19.052 9 18.5 9H14.5ZM14.5 13C13.948 13 13.5 13.448 13.5 14V16C13.5 16.552 13.948 17 14.5 17H20.5C21.052 17 21.5 16.552 21.5 16V14C21.5 13.448 21.052 13 20.5 13H14.5ZM14.5 19C13.948 19 13.5 19.448 13.5 20C13.5 20.552 13.948 21 14.5 21H18.5C19.052 21 19.5 20.552 19.5 20C19.5 19.448 19.052 19 18.5 19H14.5Z" fill="#9E9E9E"/>
    <path d="M5.96899 3C4.59899 3 3.5 4.09899 3.5 5.46899V8.53101C3.5 9.90101 4.59899 11 5.96899 11H9.03101C10.401 11 11.5 9.90101 11.5 8.53101V5.46899C11.5 4.09899 10.401 3 9.03101 3H5.96899ZM8.65601 5.65601C8.85201 5.46001 9.14799 5.46001 9.34399 5.65601C9.53999 5.85301 9.53999 6.14799 9.34399 6.34399L7.34399 8.34399C7.14799 8.53999 6.85201 8.53999 6.65601 8.34399L5.65601 7.34399C5.46001 7.14699 5.46001 6.85201 5.65601 6.65601C5.85201 6.46001 6.14799 6.46001 6.34399 6.65601L7 7.31201L8.65601 5.65601ZM5.96899 13C4.59899 13 3.5 14.099 3.5 15.469V18.531C3.5 19.901 4.59899 21 5.96899 21H9.03101C10.401 21 11.5 19.901 11.5 18.531V15.469C11.5 14.099 10.401 13 9.03101 13H5.96899ZM8.65601 15.656C8.85201 15.46 9.14799 15.46 9.34399 15.656C9.53999 15.853 9.53999 16.148 9.34399 16.344L7.34399 18.344C7.14799 18.54 6.85201 18.54 6.65601 18.344L5.65601 17.344C5.46001 17.147 5.46001 16.852 5.65601 16.656C5.85201 16.46 6.14799 16.46 6.34399 16.656L7 17.312L8.65601 15.656Z" fill="#9E9E9E"/>
</svg>