<svg width="25" height="24" viewBox="0 0 25 24" fill="none" xmlns="http://www.w3.org/2000/svg">
    <path d="M4.42308 21H14.5769C14.8217 21 15.0565 20.9157 15.2296 20.7657C15.4027 20.6157 15.5 20.4122 15.5 20.2C15.5 19.3513 15.111 18.5374 14.4185 17.9373C13.7261 17.3371 12.787 17 11.8077 17H7.19231C6.21305 17 5.27389 17.3371 4.58145 17.9373C3.88901 18.5374 3.5 19.3513 3.5 20.2C3.5 20.4122 3.59725 20.6157 3.77036 20.7657C3.94347 20.9157 4.17826 21 4.42308 21Z" fill="#9E9E9E"/>
    <path d="M3.43333 22C3.1858 22 2.9484 21.921 2.77337 21.7803C2.59833 21.6397 2.5 21.4489 2.5 21.25V19.75C2.5 19.5511 2.59833 19.3603 2.77337 19.2197C2.9484 19.079 3.1858 19 3.43333 19H15.5667C15.8142 19 16.0516 19.079 16.2266 19.2197C16.4017 19.3603 16.5 19.5511 16.5 19.75V21.25C16.5 21.4489 16.4017 21.6397 16.2266 21.7803C16.0516 21.921 15.8142 22 15.5667 22H3.43333Z" fill="#9E9E9E"/>
    <path d="M9.89365 4.27373L10.433 3.51582C10.7191 3.1138 11.1532 2.84189 11.6397 2.75992C12.1263 2.67795 12.6255 2.79262 13.0275 3.07871L16.0592 5.23614C16.4612 5.52223 16.7331 5.95631 16.8151 6.44288C16.897 6.92945 16.7824 7.42865 16.4963 7.83067L15.9569 8.58858L9.89365 4.27373Z" fill="#9E9E9E"/>
    <path d="M5.57881 10.337L6.11816 9.5791L12.1814 13.894L11.6421 14.6519C11.356 15.0539 10.9219 15.3258 10.4353 15.4078C9.94877 15.4897 9.44957 15.3751 9.04755 15.089L6.01591 12.9315C5.61389 12.6455 5.34199 12.2114 5.26001 11.7248C5.17804 11.2382 5.29271 10.739 5.57881 10.337Z" fill="#9E9E9E"/>
    <path d="M14.6598 8.80694L10.1123 5.5708L7.41552 9.36035L11.963 12.5965L14.6598 8.80694Z" fill="#9E9E9E"/>
    <path d="M10.9861 10.7597L13.1436 7.72803L21.1016 13.3913C21.6041 13.7489 21.944 14.2915 22.0465 14.8997C22.1489 15.5079 22.0056 16.1319 21.648 16.6344C21.2904 17.137 20.7478 17.4768 20.1396 17.5793C19.5313 17.6818 18.9073 17.5384 18.4048 17.1808L10.4468 11.5176L10.9861 10.7597Z" fill="#9E9E9E"/>
</svg>
