<svg width="24" height="24" viewBox="0 0 24 24" fill="none" xmlns="http://www.w3.org/2000/svg">
<path d="M3.92308 21H14.0769C14.3217 21 14.5565 20.9157 14.7296 20.7657C14.9027 20.6157 15 20.4122 15 20.2C15 19.3513 14.611 18.5374 13.9185 17.9373C13.2261 17.3371 12.287 17 11.3077 17H6.69231C5.71305 17 4.77389 17.3371 4.08145 17.9373C3.38901 18.5374 3 19.3513 3 20.2C3 20.4122 3.09725 20.6157 3.27036 20.7657C3.44347 20.9157 3.67826 21 3.92308 21Z" fill="#00A36A"/>
<path d="M2.93333 22C2.6858 22 2.4484 21.921 2.27337 21.7803C2.09833 21.6397 2 21.4489 2 21.25V19.75C2 19.5511 2.09833 19.3603 2.27337 19.2197C2.4484 19.079 2.6858 19 2.93333 19H15.0667C15.3142 19 15.5516 19.079 15.7266 19.2197C15.9017 19.3603 16 19.5511 16 19.75V21.25C16 21.4489 15.9017 21.6397 15.7266 21.7803C15.5516 21.921 15.3142 22 15.0667 22H2.93333Z" fill="#00A36A"/>
<path d="M9.39365 4.27373L9.933 3.51582C10.2191 3.1138 10.6532 2.84189 11.1397 2.75992C11.6263 2.67795 12.1255 2.79262 12.5275 3.07871L15.5592 5.23614C15.9612 5.52223 16.2331 5.95631 16.3151 6.44288C16.397 6.92945 16.2824 7.42865 15.9963 7.83067L15.4569 8.58858L9.39365 4.27373Z" fill="#33B588"/>
<path d="M5.07881 10.337L5.61816 9.5791L11.6814 13.894L11.1421 14.6519C10.856 15.0539 10.4219 15.3258 9.93534 15.4078C9.44877 15.4897 8.94957 15.3751 8.54755 15.089L5.51591 12.9315C5.11389 12.6455 4.84199 12.2114 4.76001 11.7248C4.67804 11.2382 4.79271 10.739 5.07881 10.337Z" fill="#33B588"/>
<path d="M14.1598 8.80694L9.6123 5.5708L6.91552 9.36035L11.463 12.5965L14.1598 8.80694Z" fill="#33B588"/>
<path d="M10.4861 10.7597L12.6436 7.72803L20.6016 13.3913C21.1041 13.7489 21.444 14.2915 21.5465 14.8997C21.6489 15.5079 21.5056 16.1319 21.148 16.6344C20.7904 17.137 20.2478 17.4768 19.6396 17.5793C19.0313 17.6818 18.4073 17.5384 17.9048 17.1808L9.94677 11.5176L10.4861 10.7597Z" fill="#33B588"/>
</svg>
