<svg width="24" height="24" viewBox="0 0 24 24" fill="none" xmlns="http://www.w3.org/2000/svg">
<rect x="6" y="10" width="12" height="9" fill="white"/>
<path d="M18.25 3H5.75C3.68 3 2 4.68 2 6.75V8.16998H3.5H20.5H22V6.75C22 4.68 20.32 3 18.25 3ZM5.83 7.33002C5.28 7.33002 4.83 6.89002 4.83 6.33002C4.83 5.78002 5.28 5.33002 5.83 5.33002C6.39 5.33002 6.83 5.78002 6.83 6.33002C6.83 6.89002 6.39 7.33002 5.83 7.33002Z" fill="#00A36A"/>
<path fill-rule="evenodd" clip-rule="evenodd" d="M2 9.66992H3.5H20.5H22V17.2499C22 19.3199 20.32 20.9999 18.25 20.9999H5.75C3.68 20.9999 2 19.3199 2 17.2499V9.66992ZM11.5038 12.4545V11H15.3577C15.7122 11 16 11.3258 16 11.7273V15.5H14.7154V13.5004L12.9291 15.5229C12.6297 15.8618 12.1075 16.0909 11.6842 16.0909H10.6809C10.5981 16.0909 10.4176 16.184 10.3598 16.2502L8.11153 18.7956C7.98608 18.9375 7.81419 19 7.64982 19C7.48545 19 7.31357 18.9375 7.18812 18.7956C6.93729 18.5113 6.93729 18.0342 7.18812 17.7498L9.43612 15.2044C9.73544 14.8655 10.2576 14.6364 10.6809 14.6364H11.6842C11.7671 14.6364 11.9476 14.5433 12.0054 14.4771L13.7917 12.4545H11.5038Z" fill="#33B588"/>
</svg>
