<svg width="25" height="24" viewBox="0 0 25 24" fill="none" xmlns="http://www.w3.org/2000/svg">
    <path d="M14.75 2.02563C19.259 3.06463 22.5 7.11803 22.5 11.8313C22.5 12.5635 22.392 13.4542 22.219 14.2198C22.072 14.867 21.363 15.1929 20.781 14.8798C20.375 14.6615 19.22 14.0748 17.562 13.2455C17.54 13.2341 14.116 11.5123 14.062 11.4855C13.721 11.316 13.5 10.9576 13.5 10.5742C13.5 10.5108 13.524 3.6581 13.531 2.99996C13.538 2.35812 14.128 1.88232 14.75 2.02563Z" fill="#9E9E9E"/>
    <path fill-rule="evenodd" clip-rule="evenodd" d="M10.409 2.21905C10.9874 2.096 11.5 2.56234 11.5 3.15368V11.8821C11.5 12.2608 11.714 12.6071 12.0528 12.7765L20.0304 16.7653C20.5563 17.0282 20.7459 17.6894 20.3838 18.1527C18.5536 20.4946 15.7026 22.0001 12.5 22.0001C6.97715 22.0001 2.5 17.5229 2.5 12.0001C2.5 7.19439 5.88994 3.18043 10.409 2.21905Z" fill="#9E9E9E"/>
</svg>
