<svg width="16" height="16" viewBox="0 0 16 16" fill="none" xmlns="http://www.w3.org/2000/svg">
<path fill-rule="evenodd" clip-rule="evenodd" d="M3.3007 1.5C3.31111 1.5 3.32155 1.5 3.33203 1.5L12.6967 1.5C13.1413 1.49998 13.5214 1.49996 13.8252 1.53828C14.1474 1.57892 14.4588 1.6702 14.7146 1.91016C14.9749 2.15436 15.0783 2.45904 15.1237 2.77603C15.1654 3.06723 15.1654 3.42931 15.1654 3.84239L15.1654 4.36008C15.1654 4.68575 15.1654 4.9673 15.1411 5.20207C15.1149 5.45471 15.0577 5.69173 14.9204 5.91929C14.7841 6.14513 14.6005 6.30907 14.389 6.45602C14.1897 6.59446 13.935 6.7378 13.6356 6.90637L11.6739 8.01063C11.2274 8.26199 11.0719 8.3525 10.9681 8.44262C10.7298 8.64958 10.5932 8.87921 10.5291 9.16692C10.5017 9.28991 10.4987 9.44481 10.4987 9.91529L10.4987 11.7367C10.4987 12.3375 10.4988 12.8476 10.4369 13.2397C10.3712 13.6567 10.2186 14.0566 9.81855 14.3068C9.42765 14.5513 8.99704 14.5289 8.57857 14.4295C8.17553 14.3338 7.67887 14.1396 7.08294 13.9066L7.02502 13.884C6.74587 13.7749 6.50144 13.6793 6.30793 13.5794C6.09996 13.472 5.90683 13.3384 5.75907 13.1305C5.60964 12.9202 5.54973 12.6947 5.52302 12.4642C5.49866 12.254 5.49868 12.0018 5.4987 11.7204L5.4987 9.91529C5.4987 9.44481 5.49573 9.28991 5.46831 9.16692C5.40416 8.87921 5.26765 8.64958 5.02926 8.44262C4.92546 8.3525 4.76998 8.26199 4.32346 8.01063L2.36184 6.90637C2.06236 6.7378 1.80772 6.59446 1.60842 6.45602C1.39686 6.30907 1.2133 6.14513 1.07701 5.91929C0.939688 5.69173 0.882502 5.45471 0.85633 5.20207C0.832007 4.9673 0.83202 4.68575 0.832034 4.36008L0.832035 3.87644C0.832035 3.86505 0.832034 3.85369 0.832033 3.84238C0.832002 3.42931 0.831975 3.06723 0.873702 2.77603C0.919127 2.45904 1.02254 2.15436 1.28282 1.91016C1.53858 1.6702 1.85 1.57892 2.17219 1.53828C2.47598 1.49996 2.85607 1.49998 3.3007 1.5ZM2.29734 2.53042C2.0749 2.55848 2.00416 2.60461 1.96704 2.63944C1.93442 2.67004 1.89139 2.7239 1.86359 2.91789C1.83324 3.1297 1.83203 3.41912 1.83203 3.87644V4.33632C1.83203 4.69246 1.83265 4.92185 1.85101 5.09903C1.8681 5.26404 1.89745 5.34338 1.93319 5.40261C1.96997 5.46355 2.03103 5.532 2.17892 5.63473C2.33474 5.74296 2.5476 5.86339 2.87199 6.04599L4.814 7.13922C4.83219 7.14945 4.8501 7.15953 4.86774 7.16946C5.24021 7.379 5.49389 7.52172 5.68483 7.68749C6.07907 8.02975 6.33201 8.44548 6.44434 8.9493C6.49894 9.19417 6.49885 9.46874 6.49871 9.85632C6.49871 9.87569 6.4987 9.89534 6.4987 9.91529V11.6949C6.4987 12.0097 6.49948 12.2033 6.51637 12.3491C6.53165 12.4809 6.55571 12.5252 6.57423 12.5512C6.59442 12.5797 6.63441 12.6225 6.76672 12.6909C6.90833 12.764 7.10342 12.8409 7.41152 12.9614C8.05219 13.2118 8.48312 13.379 8.80965 13.4566C9.12871 13.5323 9.23386 13.493 9.28825 13.459C9.33354 13.4307 9.40355 13.3731 9.44914 13.084C9.49721 12.7791 9.4987 12.349 9.4987 11.6949V9.91529C9.4987 9.89535 9.49869 9.8757 9.49869 9.85633C9.49856 9.46875 9.49846 9.19417 9.55306 8.9493C9.66539 8.44547 9.91833 8.02975 10.3126 7.68749C10.5035 7.52172 10.7572 7.37901 11.1296 7.16947C11.1473 7.15954 11.1652 7.14946 11.1834 7.13921L13.1254 6.04599C13.4498 5.86339 13.6627 5.74296 13.8185 5.63473C13.9664 5.532 14.0274 5.46355 14.0642 5.40261C14.1 5.34338 14.1293 5.26404 14.1464 5.09903C14.1648 4.92185 14.1654 4.69246 14.1654 4.33632V3.87644C14.1654 3.41912 14.1642 3.1297 14.1338 2.91789C14.106 2.7239 14.063 2.67004 14.0304 2.63944C13.9932 2.60461 13.9225 2.55848 13.7001 2.53042C13.4663 2.50094 13.1501 2.5 12.6654 2.5H3.33203C2.84735 2.5 2.53106 2.50094 2.29734 2.53042Z" fill="#ffffff"/>
</svg>
