<svg width="16" height="20" viewBox="0 0 16 20" fill="none" xmlns="http://www.w3.org/2000/svg">
<path fill-rule="evenodd" clip-rule="evenodd" d="M13.9858 2.42367C10.0077 1.97906 5.99234 1.97906 2.01418 2.42367C1.74501 2.45376 1.61538 2.76941 1.78573 2.97998L5.30275 7.32753C6.56264 8.88494 7.25 10.8275 7.25 12.8307V15.7199L8.75 16.8199V12.8307C8.75 10.8275 9.43736 8.88494 10.6973 7.32753L14.2143 2.97998C14.3846 2.76941 14.255 2.45376 13.9858 2.42367ZM1.84757 0.932956C5.93646 0.475961 10.0635 0.475961 14.1524 0.932956C15.5994 1.09467 16.2962 2.79146 15.3805 3.92339L11.8634 8.27093C10.8195 9.56136 10.25 11.1709 10.25 12.8307V18.3C10.25 18.5826 10.0911 18.8413 9.83902 18.969C9.58691 19.0968 9.28439 19.0719 9.05648 18.9048L6.05648 16.7048C5.86382 16.5635 5.75 16.3389 5.75 16.1V12.8307C5.75 11.1709 5.18048 9.56137 4.13656 8.27094L0.619544 3.92339C-0.296146 2.79146 0.400638 1.09467 1.84757 0.932956Z" fill="#48D597"/>
</svg>
